<svg width="30" height="25" viewBox="0 0 30 25" fill="none" xmlns="http://www.w3.org/2000/svg">
<path d="M14.9998 0C21.9998 0 26.6665 1.71875 26.6665 3.90625V4.6875V6.25C27.5884 6.25 28.3332 6.94824 28.3332 7.8125V10.9375C28.3332 11.8018 27.5884 12.5 26.6665 12.5V20.3125C26.6665 21.1768 25.9217 21.875 24.9998 21.875V23.4375C24.9998 24.3018 24.255 25 23.3332 25H21.6665C20.7446 25 19.9998 24.3018 19.9998 23.4375V21.875H9.99984V23.4375C9.99984 24.3018 9.25505 25 8.33317 25H6.6665C5.74463 25 4.99984 24.3018 4.99984 23.4375V21.875C4.07796 21.875 3.33317 21.1768 3.33317 20.3125V12.5C2.4113 12.5 1.6665 11.8018 1.6665 10.9375V7.8125C1.6665 6.94824 2.4113 6.25 3.33317 6.25V4.6875V3.90625C3.33317 1.71875 7.99984 0 14.9998 0ZM6.6665 7.8125V12.5C6.6665 13.3643 7.4113 14.0625 8.33317 14.0625H14.1665V6.25H8.33317C7.4113 6.25 6.6665 6.94824 6.6665 7.8125ZM15.8332 14.0625H21.6665C22.5884 14.0625 23.3332 13.3643 23.3332 12.5V7.8125C23.3332 6.94824 22.5884 6.25 21.6665 6.25H15.8332V14.0625ZM7.49984 19.5312C7.94186 19.5312 8.36579 19.3666 8.67835 19.0736C8.99091 18.7806 9.1665 18.3832 9.1665 17.9688C9.1665 17.5543 8.99091 17.1569 8.67835 16.8639C8.36579 16.5709 7.94186 16.4062 7.49984 16.4062C7.05781 16.4062 6.63389 16.5709 6.32133 16.8639C6.00877 17.1569 5.83317 17.5543 5.83317 17.9688C5.83317 18.3832 6.00877 18.7806 6.32133 19.0736C6.63389 19.3666 7.05781 19.5312 7.49984 19.5312ZM22.4998 19.5312C22.9419 19.5312 23.3658 19.3666 23.6783 19.0736C23.9909 18.7806 24.1665 18.3832 24.1665 17.9688C24.1665 17.5543 23.9909 17.1569 23.6783 16.8639C23.3658 16.5709 22.9419 16.4062 22.4998 16.4062C22.0578 16.4062 21.6339 16.5709 21.3213 16.8639C21.0088 17.1569 20.8332 17.5543 20.8332 17.9688C20.8332 18.3832 21.0088 18.7806 21.3213 19.0736C21.6339 19.3666 22.0578 19.5312 22.4998 19.5312ZM19.9998 3.90625C19.9998 3.47656 19.6248 3.125 19.1665 3.125H10.8332C10.3748 3.125 9.99984 3.47656 9.99984 3.90625C9.99984 4.33594 10.3748 4.6875 10.8332 4.6875H19.1665C19.6248 4.6875 19.9998 4.33594 19.9998 3.90625Z" fill="#D6D46D"/>
<path d="M26.1665 6.25V6.75H26.6665C27.3431 6.75 27.8332 7.25429 27.8332 7.8125V10.9375C27.8332 11.4957 27.3431 12 26.6665 12H26.1665V12.5V20.3125C26.1665 20.8707 25.6765 21.375 24.9998 21.375H24.4998V21.875V23.4375C24.4998 23.9957 24.0098 24.5 23.3332 24.5H21.6665C20.9899 24.5 20.4998 23.9957 20.4998 23.4375V21.875V21.375H19.9998H9.99984H9.49984V21.875V23.4375C9.49984 23.9957 9.00979 24.5 8.33317 24.5H6.6665C5.98988 24.5 5.49984 23.9957 5.49984 23.4375V21.875V21.375H4.99984C4.32322 21.375 3.83317 20.8707 3.83317 20.3125V12.5V12H3.33317C2.65655 12 2.1665 11.4957 2.1665 10.9375V7.8125C2.1665 7.25429 2.65655 6.75 3.33317 6.75H3.83317V6.25V4.6875V3.90625C3.83317 3.55437 4.01744 3.16382 4.49711 2.75268C4.97853 2.34003 5.71629 1.94583 6.70431 1.60556C8.6765 0.926367 11.5337 0.5 14.9998 0.5C18.466 0.5 21.3232 0.926367 23.2954 1.60556C24.2834 1.94583 25.0211 2.34003 25.5026 2.75268C25.9822 3.16382 26.1665 3.55437 26.1665 3.90625V4.6875V6.25ZM14.1665 14.5625H14.6665V14.0625V6.25V5.75H14.1665H8.33317C7.16604 5.75 6.1665 6.64219 6.1665 7.8125V12.5C6.1665 13.6703 7.16604 14.5625 8.33317 14.5625H14.1665ZM15.3332 14.0625V14.5625H15.8332H21.6665C22.8336 14.5625 23.8332 13.6703 23.8332 12.5V7.8125C23.8332 6.64219 22.8336 5.75 21.6665 5.75H15.8332H15.3332V6.25V14.0625ZM7.49984 20.0312C8.06443 20.0312 8.61188 19.8213 9.02032 19.4384C9.42985 19.0544 9.6665 18.5266 9.6665 17.9688C9.6665 17.4109 9.42985 16.8831 9.02032 16.4991C8.61188 16.1162 8.06443 15.9062 7.49984 15.9062C6.93524 15.9062 6.38779 16.1162 5.97935 16.4991C5.56983 16.8831 5.33317 17.4109 5.33317 17.9688C5.33317 18.5266 5.56983 19.0544 5.97935 19.4384C6.38779 19.8213 6.93524 20.0312 7.49984 20.0312ZM22.4998 20.0312C23.0644 20.0312 23.6119 19.8213 24.0203 19.4384C24.4298 19.0544 24.6665 18.5266 24.6665 17.9688C24.6665 17.4109 24.4298 16.8831 24.0203 16.4991C23.6119 16.1162 23.0644 15.9062 22.4998 15.9062C21.9352 15.9062 21.3878 16.1162 20.9794 16.4991C20.5698 16.8831 20.3332 17.4109 20.3332 17.9688C20.3332 18.5266 20.5698 19.0544 20.9794 19.4384C21.3878 19.8213 21.9352 20.0312 22.4998 20.0312ZM20.4998 3.90625C20.4998 3.17051 19.8701 2.625 19.1665 2.625H10.8332C10.1296 2.625 9.49984 3.17051 9.49984 3.90625C9.49984 4.64199 10.1296 5.1875 10.8332 5.1875H19.1665C19.8701 5.1875 20.4998 4.64199 20.4998 3.90625Z" stroke="black" stroke-opacity="0.5"/>
</svg>
