<svg width="40" height="40" viewBox="0 0 40 40" fill="none" xmlns="http://www.w3.org/2000/svg">
<g clip-path="url(#clip0_216_63)">
<path d="M37.9565 17.0144L36.7648 19.562C35.6675 21.9079 28.6949 20.9621 21.1917 17.4524C13.6885 13.9426 8.49346 9.19676 9.59078 6.85088L10.7824 4.30332C11.8798 1.95743 18.8524 2.90318 26.3556 6.41292C33.8588 9.92266 39.0538 14.6685 37.9565 17.0144ZM31.2884 22.6087C32.7338 22.8061 34.1282 22.8438 35.3224 22.6456L32.7926 28.0539C31.6953 30.3997 24.7227 29.454 17.2195 25.9443C9.71628 22.4345 4.52124 17.6886 5.61856 15.3428L8.14837 9.9345C8.7592 10.9835 9.68437 12.0244 10.7623 13.0073C13.0885 15.1304 16.4849 17.3207 20.3972 19.1507C24.3096 20.9808 28.1677 22.1839 31.2884 22.6087ZM4.17615 18.4264C4.78698 19.4754 5.71215 20.5162 6.79008 21.4991C9.11633 23.6223 12.5127 25.8126 16.425 27.6426C20.3374 29.4727 24.1955 30.6758 27.3162 31.1006C28.7615 31.298 30.1559 31.3357 31.3502 31.1375L29.2176 35.6966C28.1203 38.0424 21.1477 37.0967 13.6445 33.587C6.14129 30.0772 0.946243 25.3313 2.04357 22.9855L4.17615 18.4264Z" fill="#D6D46D"/>
</g>
<defs>
<clipPath id="clip0_216_63">
<rect width="30" height="30" fill="white" transform="translate(12.7686 0.057373) rotate(25.0686)"/>
</clipPath>
</defs>
</svg>
