<svg width="25" height="20" viewBox="0 0 25 20" fill="none" xmlns="http://www.w3.org/2000/svg">
<g clip-path="url(#clip0_161_9)">
<path d="M8.03571 5.625V7.5H16.9643V5.625C16.9643 3.89844 14.9665 2.5 12.5 2.5C10.0335 2.5 8.03571 3.89844 8.03571 5.625ZM4.46429 7.5V5.625C4.46429 2.51953 8.06362 0 12.5 0C16.9364 0 20.5357 2.51953 20.5357 5.625V7.5H21.4286C23.3984 7.5 25 8.62109 25 10V17.5C25 18.8789 23.3984 20 21.4286 20H3.57143C1.60156 20 0 18.8789 0 17.5V10C0 8.62109 1.60156 7.5 3.57143 7.5H4.46429Z" fill="black" fill-opacity="0.5"/>
</g>
<defs>
<clipPath id="clip0_161_9">
<rect width="25" height="20" fill="white"/>
</clipPath>
</defs>
</svg>
