<svg width="25" height="20" viewBox="0 0 25 20" fill="none" xmlns="http://www.w3.org/2000/svg">
<g clip-path="url(#clip0_161_3)">
<path d="M12.287 10C14.1491 10 15.935 9.47322 17.2517 8.53553C18.5684 7.59785 19.3081 6.32608 19.3081 5C19.3081 3.67392 18.5684 2.40215 17.2517 1.46447C15.935 0.526784 14.1491 0 12.287 0C10.4249 0 8.63902 0.526784 7.3223 1.46447C6.00558 2.40215 5.26586 3.67392 5.26586 5C5.26586 6.32608 6.00558 7.59785 7.3223 8.53553C8.63902 9.47322 10.4249 10 12.287 10ZM9.78023 11.875C4.37724 11.875 0 14.9922 0 18.8398C0 19.4805 0.72954 20 1.62912 20H22.9449C23.8444 20 24.574 19.4805 24.574 18.8398C24.574 14.9922 20.1968 11.875 14.7938 11.875H9.78023Z" fill="black" fill-opacity="0.5"/>
</g>
<defs>
<clipPath id="clip0_161_3">
<rect width="24.574" height="20" fill="white"/>
</clipPath>
</defs>
</svg>
