<svg width="36" height="38" viewBox="0 0 36 38" fill="none" xmlns="http://www.w3.org/2000/svg">
<g clip-path="url(#clip0_216_61)">
<path d="M17.7615 18.9328C19.4692 18.1128 20.7649 16.614 21.3636 14.7662C21.9622 12.9184 21.8147 10.873 20.9536 9.07988C20.0925 7.28681 18.5883 5.89295 16.7719 5.20494C14.9555 4.51694 12.9757 4.59114 11.268 5.41123C9.56032 6.23133 8.26464 7.73013 7.666 9.57791C7.06737 11.4257 7.21482 13.4711 8.07591 15.2642C8.93701 17.0573 10.4412 18.4511 12.2576 19.1391C14.074 19.8271 16.0538 19.7529 17.7615 18.9328ZM16.6802 22.5721C11.7253 24.9517 9.73522 31.0944 12.2337 36.297C12.6497 37.1632 13.6561 37.5444 14.4811 37.1483L34.0291 27.7607C34.854 27.3645 35.1857 26.3407 34.7697 25.4745C32.2712 20.2718 26.2329 17.9846 21.278 20.3642L16.6802 22.5721Z" fill="#D6D46D"/>
</g>
<defs>
<clipPath id="clip0_216_61">
<rect width="25" height="30" fill="white" transform="translate(0 10.8225) rotate(-25.6519)"/>
</clipPath>
</defs>
</svg>
