<svg width="37" height="38" viewBox="0 0 37 38" fill="none" xmlns="http://www.w3.org/2000/svg">
<g clip-path="url(#clip0_216_116)">
<path d="M18.4998 19C20.2075 18.1799 21.5032 16.6811 22.1018 14.8333C22.7005 12.9855 22.553 10.9401 21.6919 9.14702C20.8308 7.35395 19.3266 5.96009 17.5102 5.27208C15.6938 4.58408 13.714 4.65828 12.0063 5.47837C10.2986 6.29846 9.00292 7.79726 8.40428 9.64505C7.80565 11.4928 7.9531 13.5383 8.81419 15.3313C9.67529 17.1244 11.1795 18.5183 12.9959 19.2063C14.8123 19.8943 16.7921 19.8201 18.4998 19ZM17.4185 22.6393C12.4636 25.0188 10.4735 31.1615 12.972 36.3642C13.388 37.2304 14.3944 37.6116 15.2194 37.2154L34.7673 27.8278C35.5923 27.4316 35.924 26.4078 35.508 25.5416C33.0095 20.339 26.9711 18.0518 22.0162 20.4313L17.4185 22.6393Z" fill="#D6D46D"/>
</g>
<defs>
<clipPath id="clip0_216_116">
<rect width="25" height="30" fill="white" transform="translate(0.738281 10.8896) rotate(-25.6519)"/>
</clipPath>
</defs>
</svg>
